<svg width="80" height="80" viewBox="0 0 80 80" fill="none" xmlns="http://www.w3.org/2000/svg">
<rect width="80" height="80" rx="40" fill="#DBE9FE"/>
<mask id="mask0_35_53" style="mask-type:alpha" maskUnits="userSpaceOnUse" x="16" y="16" width="48" height="48">
<rect x="16" y="16" width="48" height="48" fill="#2463EB"/>
</mask>
<g mask="url(#mask0_35_53)">
<path d="M24 44.45H26.25L27.4 41.15H32.6L33.8 44.45H36L31.15 31.55H28.85L24 44.45ZM28.05 39.3L29.95 33.95H30.05L31.95 39.3H28.05ZM44 35.3V32.9C45.1 32.4333 46.225 32.0833 47.375 31.85C48.525 31.6167 49.7333 31.5 51 31.5C51.8667 31.5 52.7167 31.5667 53.55 31.7C54.3833 31.8333 55.2 32 56 32.2V34.4C55.2 34.1 54.3917 33.875 53.575 33.725C52.7583 33.575 51.9 33.5 51 33.5C49.7333 33.5 48.5167 33.6583 47.35 33.975C46.1833 34.2917 45.0667 34.7333 44 35.3ZM44 46.3V43.85C45.1 43.4 46.225 43.0625 47.375 42.8375C48.525 42.6125 49.7333 42.5 51 42.5C51.8667 42.5 52.7167 42.5667 53.55 42.7C54.3833 42.8333 55.2 43 56 43.2V45.4C55.2 45.1 54.3917 44.875 53.575 44.725C52.7583 44.575 51.9 44.5 51 44.5C49.7333 44.5 48.5167 44.65 47.35 44.95C46.1833 45.25 45.0667 45.7 44 46.3ZM44 40.8V38.4C45.1 37.9333 46.225 37.5833 47.375 37.35C48.525 37.1167 49.7333 37 51 37C51.8667 37 52.7167 37.0667 53.55 37.2C54.3833 37.3333 55.2 37.5 56 37.7V39.9C55.2 39.6 54.3917 39.375 53.575 39.225C52.7583 39.075 51.9 39 51 39C49.7333 39 48.5167 39.1583 47.35 39.475C46.1833 39.7917 45.0667 40.2333 44 40.8ZM28.4 49C30.1857 49 31.9237 49.2083 33.614 49.625C35.3047 50.0417 36.9667 50.6667 38.6 51.5V30.15C37.1 29.15 35.473 28.375 33.719 27.825C31.965 27.275 30.192 27 28.4 27C27.1333 27 25.8917 27.1583 24.675 27.475C23.4583 27.7917 22.2333 28.1833 21 28.65V50.35C22.0333 49.8833 23.2083 49.5417 24.525 49.325C25.8417 49.1083 27.1333 49 28.4 49ZM41.6 51.5C43.2667 50.6667 44.9 50.0417 46.5 49.625C48.1 49.2083 49.8 49 51.6 49C52.8667 49 54.175 49.1 55.525 49.3C56.875 49.5 58.0333 49.7667 59 50.1V28.65C57.8667 28.0833 56.6697 27.6667 55.409 27.4C54.1483 27.1333 52.8787 27 51.6 27C49.8 27 48.0583 27.275 46.375 27.825C44.6917 28.375 43.1 29.15 41.6 30.15V51.5ZM40.1 56C38.4 54.7333 36.55 53.7583 34.55 53.075C32.55 52.3917 30.5 52.05 28.4 52.05C27.182 52.05 25.9858 52.2 24.8115 52.5C23.6372 52.8 22.4667 53.1667 21.3 53.6C20.53 53.9667 19.7875 53.9167 19.0725 53.45C18.3575 52.9833 18 52.3167 18 51.45V28.3C18 27.8 18.1167 27.3417 18.35 26.925C18.5833 26.5083 18.9333 26.1833 19.4 25.95C20.8 25.2833 22.2565 24.7917 23.7695 24.475C25.2828 24.1583 26.8263 24 28.4 24C30.5 24 32.5417 24.2833 34.525 24.85C36.5083 25.4167 38.3667 26.2833 40.1 27.45C41.8 26.2833 43.625 25.4167 45.575 24.85C47.525 24.2833 49.5333 24 51.6 24C53.1623 24 54.6945 24.1583 56.1965 24.475C57.6988 24.7917 59.15 25.2833 60.55 25.95C61.0167 26.1833 61.375 26.5083 61.625 26.925C61.875 27.3417 62 27.8 62 28.3V51.45C62 52.3797 61.625 53.0872 60.875 53.5725C60.125 54.0575 59.3833 54.0667 58.65 53.6C57.5167 53.1333 56.3628 52.7583 55.1885 52.475C54.0142 52.1917 52.818 52.05 51.6 52.05C49.5 52.05 47.4833 52.4 45.55 53.1C43.6167 53.8 41.8 54.7667 40.1 56Z" fill="#2463EB"/>
</g>
</svg>
