<svg width="80" height="80" viewBox="0 0 80 80" fill="none" xmlns="http://www.w3.org/2000/svg">
<rect width="80" height="80" rx="40" fill="#DBE9FE"/>
<mask id="mask0_35_54" style="mask-type:alpha" maskUnits="userSpaceOnUse" x="16" y="16" width="48" height="48">
<rect x="16" y="16" width="48" height="48" fill="#D9D9D9"/>
</mask>
<g mask="url(#mask0_35_54)">
<path d="M39.988 57C42.7627 57 45.125 56.029 47.075 54.087C49.025 52.1447 50 49.7863 50 47.012C50 44.2373 49.029 41.875 47.087 39.925C45.1447 37.975 42.7863 37 40.012 37C37.2373 37 34.875 37.971 32.925 39.913C30.975 41.8553 30 44.2137 30 46.988C30 49.7627 30.971 52.125 32.913 54.075C34.8553 56.025 37.2137 57 39.988 57ZM33.3 35.85C34.2333 35.2833 35.2333 34.8417 36.3 34.525C37.3667 34.2083 38.4833 34.0333 39.65 34L34.15 23H26.85L33.3 35.85ZM46.7 35.85L53.15 23H45.85L41.7 31.35L43.2 34.35C43.8333 34.5167 44.4417 34.725 45.025 34.975C45.6083 35.225 46.1667 35.5167 46.7 35.85ZM29.65 54.85C28.8167 53.75 28.1667 52.5417 27.7 51.225C27.2333 49.9083 27 48.5 27 47C27 45.5 27.2333 44.0917 27.7 42.775C28.1667 41.4583 28.8167 40.25 29.65 39.15C27.75 39.4833 26.1667 40.375 24.9 41.825C23.6333 43.275 23 45 23 47C23 49 23.6333 50.725 24.9 52.175C26.1667 53.625 27.75 54.5167 29.65 54.85ZM50.35 54.85C52.25 54.5167 53.8333 53.625 55.1 52.175C56.3667 50.725 57 49 57 47C57 45 56.3667 43.275 55.1 41.825C53.8333 40.375 52.25 39.4833 50.35 39.15C51.1833 40.25 51.8333 41.4583 52.3 42.775C52.7667 44.0917 53 45.5 53 47C53 48.5 52.7667 49.9083 52.3 51.225C51.8333 52.5417 51.1833 53.75 50.35 54.85ZM40 60C38.6667 60 37.3917 59.8083 36.175 59.425C34.9583 59.0417 33.8333 58.5167 32.8 57.85C32.5 57.9167 32.2 57.9583 31.9 57.975C31.6 57.9917 31.2833 58 30.95 58C27.9167 58 25.3333 56.9333 23.2 54.8C21.0667 52.6667 20 50.0833 20 47.05C20 44.15 20.9667 41.6667 22.9 39.6C24.8333 37.5333 27.2167 36.3833 30.05 36.15L22 20H36L40 28L44 20H58L50 36.05C52.8333 36.3167 55.2083 37.4833 57.125 39.55C59.0417 41.6167 60 44.1 60 47C60 50.0667 58.9333 52.6667 56.8 54.8C54.6667 56.9333 52.0667 58 49 58C48.7 58 48.3917 57.9917 48.075 57.975C47.7583 57.9583 47.45 57.9167 47.15 57.85C46.1167 58.5167 45 59.0417 43.8 59.425C42.6 59.8083 41.3333 60 40 60ZM36.3 52.5L37.7 47.95L34 45.3H38.55L40 40.5L41.45 45.3H46L42.3 47.95L43.7 52.5L40 49.7L36.3 52.5Z" fill="#2463EB"/>
</g>
</svg>
