<svg width="80" height="80" viewBox="0 0 80 80" fill="none" xmlns="http://www.w3.org/2000/svg">
<rect width="80" height="80" rx="40" fill="#DBE9FE"/>
<mask id="mask0_35_68" style="mask-type:alpha" maskUnits="userSpaceOnUse" x="16" y="16" width="48" height="48">
<rect x="16" y="16" width="48" height="48" fill="#D9D9D9"/>
</mask>
<g mask="url(#mask0_35_68)">
<mask id="mask1_35_68" style="mask-type:alpha" maskUnits="userSpaceOnUse" x="16" y="15" width="49" height="49">
<rect x="16.5" y="15.5" width="48" height="48" fill="#D9D9D9"/>
</mask>
<g mask="url(#mask1_35_68)">
<path d="M38.15 52.1L31.25 45.25L33.35 43.15L38.15 47.85L47.35 38.65L49.45 40.8L38.15 52.1ZM25.5 59.5C24.7 59.5 24 59.2 23.4 58.6C22.8 58 22.5 57.3 22.5 56.5V25.5C22.5 24.7 22.8 24 23.4 23.4C24 22.8 24.7 22.5 25.5 22.5H28.75V19.5H32V22.5H49V19.5H52.25V22.5H55.5C56.3 22.5 57 22.8 57.6 23.4C58.2 24 58.5 24.7 58.5 25.5V56.5C58.5 57.3 58.2 58 57.6 58.6C57 59.2 56.3 59.5 55.5 59.5H25.5ZM25.5 56.5H55.5V35H25.5V56.5ZM25.5 32H55.5V25.5H25.5V32Z" fill="#2463EB"/>
</g>
</g>
</svg>
